<?xml version="1.0" standalone="no"?>
<!DOCTYPE svg PUBLIC "-//W3C//DTD SVG 20010904//EN"
 "http://www.w3.org/TR/2001/REC-SVG-20010904/DTD/svg10.dtd">
<svg version="1.0" xmlns="http://www.w3.org/2000/svg"
 width="382.000000pt" height="356.000000pt" viewBox="0 0 382.000000 356.000000"
 preserveAspectRatio="xMidYMid meet">

<g transform="translate(0.000000,356.000000) scale(0.100000,-0.100000)"
fill="#000000" stroke="none">
<path d="M1765 3309 c-74 -6 -131 -15 -165 -24 -3 -1 -25 -5 -50 -9 -204 -37
-477 -179 -664 -346 -113 -100 -250 -262 -282 -333 -8 -17 -24 -45 -34 -62
-47 -70 -127 -259 -136 -320 -2 -11 -10 -50 -18 -86 -24 -104 -26 -120 -37
-199 -14 -99 -4 -337 15 -368 3 -5 8 -35 11 -67 5 -55 59 -249 75 -270 4 -5
11 -21 15 -35 10 -37 82 -177 123 -240 88 -135 254 -314 358 -384 17 -12 59
-40 93 -64 70 -49 209 -120 307 -157 318 -120 702 -122 1044 -5 82 28 292 136
326 167 14 12 29 23 34 23 18 0 158 120 245 211 189 196 313 433 381 725 25
108 28 138 28 314 1 168 -2 210 -22 305 -47 221 -148 457 -252 588 -109 139
-143 175 -206 223 -36 28 -44 31 -44 16 -1 -15 -2 -15 -15 2 -8 11 -15 28 -15
37 0 21 -36 52 -144 123 -276 182 -618 265 -971 235z m25 -63 c0 -3 -4 -8 -10
-11 -5 -3 -10 -1 -10 4 0 6 5 11 10 11 6 0 10 -2 10 -4z m260 0 c0 -3 -4 -8
-10 -11 -5 -3 -10 -1 -10 4 0 6 5 11 10 11 6 0 10 -2 10 -4z m-525 -46 c3 -5
1 -10 -4 -10 -6 0 -11 5 -11 10 0 6 2 10 4 10 3 0 8 -4 11 -10z m780 0 c3 -5
1 -10 -4 -10 -6 0 -11 5 -11 10 0 6 2 10 4 10 3 0 8 -4 11 -10z m-226 -20
c325 -37 633 -193 861 -437 137 -147 260 -351 260 -433 0 -119 -129 -224 -252
-206 -67 10 -102 38 -147 114 -149 255 -364 419 -645 492 -44 11 -90 20 -102
20 -12 0 -43 10 -69 21 -54 24 -111 22 -165 -5 -18 -9 -45 -16 -60 -16 -43 0
-179 -39 -263 -75 -175 -76 -354 -226 -447 -374 -78 -124 -84 -134 -111 -153
-14 -11 -50 -22 -80 -25 -126 -13 -249 90 -249 209 0 30 23 95 50 138 5 8 23
39 40 68 140 240 411 470 670 568 241 92 469 122 709 94z m-739 -50 c0 -5 -2
-10 -4 -10 -3 0 -8 5 -11 10 -3 6 -1 10 4 10 6 0 11 -4 11 -10z m1150 0 c0 -5
-2 -10 -4 -10 -3 0 -8 5 -11 10 -3 6 -1 10 4 10 6 0 11 -4 11 -10z m-1330 -90
c0 -5 -2 -10 -4 -10 -3 0 -8 5 -11 10 -3 6 -1 10 4 10 6 0 11 -4 11 -10z
m1510 0 c0 -5 -4 -10 -10 -10 -5 0 -10 5 -10 10 0 6 5 10 10 10 6 0 10 -4 10
-10z m-1565 -30 c3 -5 1 -10 -4 -10 -6 0 -11 5 -11 10 0 6 2 10 4 10 3 0 8 -4
11 -10z m1620 0 c3 -5 1 -10 -4 -10 -6 0 -11 5 -11 10 0 6 2 10 4 10 3 0 8 -4
11 -10z m-1675 -40 c0 -5 -4 -10 -10 -10 -5 0 -10 5 -10 10 0 6 5 10 10 10 6
0 10 -4 10 -10z m930 -245 c15 -8 38 -27 49 -41 15 -19 21 -22 21 -10 0 21 23
20 67 -1 42 -20 67 -70 58 -117 -4 -21 -3 -27 3 -17 15 21 32 3 32 -34 0 -38
-37 -75 -74 -75 -20 1 -19 2 4 15 22 13 23 14 5 15 -11 0 -27 5 -35 10 -13 9
-13 12 2 21 10 5 23 19 29 30 10 20 10 20 -15 4 -25 -17 -96 -23 -116 -10 -7
4 -7 12 0 25 5 10 10 25 9 32 0 10 -2 10 -6 0 -7 -18 -78 -52 -108 -52 -30 0
-85 26 -102 49 -11 14 -12 14 -13 1 0 -9 5 -21 12 -28 30 -30 -45 -48 -95 -23
-43 22 -49 12 -11 -18 l26 -20 -26 -12 c-22 -10 -24 -15 -13 -27 10 -13 8 -14
-18 -8 -38 9 -65 40 -65 77 0 34 15 45 30 22 9 -15 10 -12 5 14 -13 67 27 126
96 140 29 6 31 4 24 -18 -6 -23 -6 -23 17 4 54 65 141 87 208 52z m-350 -65
c0 -5 -18 -14 -39 -20 -35 -9 -125 -50 -211 -96 -14 -7 -51 -35 -82 -61 -30
-26 -64 -55 -74 -63 -11 -9 -26 -27 -35 -40 -9 -14 -20 -22 -24 -18 -18 17
132 151 238 213 48 28 203 94 220 95 4 0 7 -4 7 -10z m630 -15 c133 -44 319
-176 412 -293 78 -98 158 -230 158 -262 0 -25 -18 -5 -43 48 -14 31 -42 80
-61 107 -19 28 -42 62 -50 77 -17 29 -62 73 -165 162 -64 55 -252 156 -290
156 -10 0 -25 8 -32 17 -12 14 -12 16 1 11 8 -3 40 -13 70 -23z m-820 -106 c0
-5 -4 -9 -10 -9 -5 0 -10 7 -10 16 0 8 5 12 10 9 6 -3 10 -10 10 -16z m994
-21 c60 -44 59 -60 -2 -57 -40 2 -48 6 -49 22 -1 11 -7 23 -13 27 -12 7 -3 40
11 40 5 0 29 -15 53 -32z m-1054 -18 c0 -5 -2 -10 -4 -10 -3 0 -8 5 -11 10 -3
6 -1 10 4 10 6 0 11 -4 11 -10z m65 -19 c-3 -12 -10 -21 -15 -21 -4 0 -3 11 3
24 14 29 22 27 12 -3z m577 2 c61 -23 78 -41 78 -80 0 -38 -6 -39 -70 -17 -60
21 -191 21 -250 0 -64 -22 -66 -21 -62 25 4 38 8 43 56 65 63 30 182 33 248 7z
m1183 -3 c3 -5 1 -10 -4 -10 -6 0 -11 5 -11 10 0 6 2 10 4 10 3 0 8 -4 11 -10z
m-1829 -30 c8 0 14 -4 14 -10 0 -15 -37 -12 -43 4 -3 8 -3 17 1 21 4 3 8 1 10
-4 2 -6 10 -11 18 -11z m220 -14 c3 -7 23 -21 45 -31 33 -15 39 -23 39 -49 0
-35 -7 -46 -35 -62 -24 -13 -31 -62 -16 -105 15 -42 3 -56 -93 -110 -61 -35
-96 -48 -143 -53 -55 -6 -63 -5 -72 13 -16 30 -14 31 32 25 45 -6 117 16 117
36 0 15 -61 50 -90 51 -14 0 -19 3 -12 6 17 7 49 71 57 116 7 37 7 37 -26 37
-25 0 -42 -10 -76 -45 -33 -35 -43 -41 -43 -26 0 28 132 136 225 184 57 29 83
33 91 13z m707 -12 c122 -62 233 -156 225 -190 -4 -16 -7 -15 -18 9 -15 32
-67 67 -99 67 -17 0 -21 -6 -21 -35 0 -39 24 -93 49 -112 14 -11 13 -12 -9
-13 -32 0 -93 -37 -87 -53 6 -19 78 -39 120 -34 39 5 50 -10 23 -32 -21 -17
-135 2 -177 30 -19 13 -53 32 -75 42 -49 22 -69 50 -54 77 11 21 13 79 4 104
-3 9 -14 16 -24 16 -20 0 -30 19 -30 60 0 22 6 30 28 38 15 5 38 19 52 30 32
27 31 27 93 -4z m932 -4 c3 -5 1 -10 -4 -10 -6 0 -11 5 -11 10 0 6 2 10 4 10
3 0 8 -4 11 -10z m-1961 -6 c9 -3 16 -15 16 -26 0 -10 -4 -17 -9 -13 -5 3 -12
1 -16 -5 -9 -15 -35 -12 -41 5 -6 15 12 45 26 45 5 0 15 -3 24 -6z m1310 -16
c8 -13 7 -21 -1 -29 -16 -16 -63 4 -63 25 0 29 46 32 64 4z m-1448 -81 c-9
-12 -30 -40 -46 -62 -16 -22 -44 -70 -62 -107 -28 -59 -49 -85 -48 -60 2 39
160 287 168 263 2 -6 -3 -22 -12 -34z m110 -53 c10 -18 16 -36 13 -39 -3 -3
-12 7 -19 23 -8 15 -28 40 -44 55 l-31 29 32 -18 c17 -10 40 -32 49 -50z m474
46 c-6 -11 -13 -20 -16 -20 -2 0 0 9 6 20 6 11 13 20 16 20 2 0 0 -9 -6 -20z
m888 -21 c-18 -19 -38 -43 -45 -54 -10 -16 -10 -14 -2 12 10 30 66 89 76 80 2
-2 -11 -20 -29 -38z m-743 15 c35 -14 42 -14 79 0 52 20 76 20 104 1 19 -14
21 -24 19 -78 -2 -58 -4 -62 -30 -71 -32 -12 -46 1 -42 37 1 12 3 29 4 37 1
12 4 11 16 -3 13 -18 14 -18 25 3 25 47 -13 65 -72 34 -25 -13 -32 -14 -39 -2
-7 11 -11 10 -19 -2 -8 -12 -10 -12 -10 -1 0 10 -3 11 -14 2 -11 -10 -22 -9
-46 4 -33 17 -80 13 -80 -6 0 -17 20 -49 30 -49 6 0 10 8 11 18 0 13 2 13 9
-4 5 -12 7 -30 5 -40 -2 -11 -4 -21 -4 -24 -2 -10 -45 -9 -57 1 -6 5 -12 34
-12 65 -1 88 39 113 123 78z m243 -9 c-3 -3 -9 2 -12 12 -6 14 -5 15 5 6 7 -7
10 -15 7 -18z m1177 5 c3 -5 1 -10 -4 -10 -6 0 -11 5 -11 10 0 6 2 10 4 10 3
0 8 -4 11 -10z m-1937 -54 c-18 -19 -35 -32 -38 -29 -5 5 55 63 65 63 3 0 -9
-15 -27 -34z m332 24 c0 -5 -7 -10 -16 -10 -8 0 -12 5 -9 10 3 6 10 10 16 10
5 0 9 -4 9 -10z m475 0 c3 -5 -1 -10 -10 -10 -9 0 -13 5 -10 10 3 6 8 10 10
10 2 0 7 -4 10 -10z m355 -71 c0 -6 -7 -4 -15 5 -8 8 -15 18 -15 22 0 4 -6 15
-12 24 -7 9 -1 3 15 -12 15 -16 27 -33 27 -39z m-841 -2 c1 -5 -3 -5 -9 -2 -5
3 -10 16 -9 28 0 21 1 21 9 2 5 -11 9 -24 9 -28z m494 13 c-7 -28 -13 -25 -13
6 0 14 4 23 9 20 5 -3 7 -15 4 -26z m-244 -7 c17 4 31 3 31 -2 0 -13 -39 -21
-72 -14 -23 5 -26 8 -17 20 9 10 14 11 20 2 4 -7 19 -10 38 -6z m-227 -35 c-7
-7 -13 -21 -13 -32 -1 -17 -2 -17 -6 -4 -5 19 15 63 25 54 3 -4 0 -12 -6 -18z
m447 -27 c0 -14 -1 -14 -6 -1 -3 8 -10 24 -15 35 -9 20 -9 20 6 1 9 -11 16
-27 15 -35z m-1702 17 c-3 -8 -6 -5 -6 6 -1 11 2 17 5 13 3 -3 4 -12 1 -19z
m1451 10 c9 -9 17 -9 36 1 42 23 86 -15 54 -47 -9 -9 -9 -12 0 -12 6 0 15 8
21 18 9 15 12 14 40 -12 31 -30 40 -59 21 -71 -5 -3 -10 -14 -10 -24 0 -28
-37 -69 -83 -92 -37 -19 -46 -20 -93 -10 -62 14 -101 52 -124 120 l-14 44 34
28 c29 24 36 27 43 14 13 -24 29 -18 16 7 -10 18 -8 24 7 35 22 16 36 17 52 1z
m-703 -14 c25 -12 26 -13 5 -8 -14 4 -37 6 -52 6 -15 -1 -30 3 -33 8 -9 15 46
11 80 -6z m1527 7 c-12 -7 -62 -4 -62 5 0 2 17 4 38 4 23 0 32 -3 24 -9z m-72
-5 c0 -2 -7 -7 -16 -10 -8 -3 -12 -2 -9 4 6 10 25 14 25 6z m-975 -76 c-4 -12
-9 -19 -12 -17 -3 3 -2 15 2 27 4 12 9 19 12 17 3 -3 2 -15 -2 -27z m-719 -15
c-16 -45 -30 -59 -20 -20 6 26 21 55 29 55 1 0 -3 -16 -9 -35z m1212 4 c-3 -8
-7 -3 -11 10 -4 17 -3 21 5 13 5 -5 8 -16 6 -23z m732 -27 c5 -20 10 -41 10
-47 0 -17 -27 40 -32 68 -7 39 10 22 22 -21z m-1709 12 c-22 -28 -29 -94 -11
-94 29 0 88 42 100 70 l13 32 13 -24 c18 -31 18 -31 -16 -51 -16 -10 -30 -24
-30 -30 0 -7 -12 -23 -26 -36 -35 -34 -64 -94 -57 -120 5 -19 2 -21 -26 -19
-17 1 -31 3 -31 4 0 2 5 15 11 30 5 16 7 46 4 67 -6 32 -10 38 -27 34 -14 -4
-16 -2 -10 6 5 7 17 37 27 67 25 79 33 90 61 90 l25 0 -20 -26z m429 17 c0
-12 -91 -63 -104 -58 -6 2 14 18 44 35 62 36 60 35 60 23z m654 -22 c27 -16
46 -32 43 -35 -7 -8 -96 38 -101 53 -8 20 6 16 58 -18z m423 -26 c14 -32 29
-70 33 -84 7 -23 5 -26 -12 -21 -19 5 -20 1 -16 -65 l3 -69 -27 -2 c-27 -2
-27 -2 -30 70 -3 70 -4 74 -33 88 -24 12 -62 36 -103 66 -2 1 3 14 10 28 l14
26 18 -35 c17 -31 67 -65 95 -65 16 0 13 56 -4 90 -15 29 -15 30 5 30 16 0 27
-14 47 -57z m-2207 27 c0 -5 -4 -10 -10 -10 -5 0 -10 5 -10 10 0 6 5 10 10 10
6 0 10 -4 10 -10z m564 -6 c8 -21 -9 -41 -55 -64 -33 -17 -38 -18 -50 -4 -15
18 -7 27 48 60 47 27 49 28 57 8z m633 -6 c-3 -8 -6 -5 -6 6 -1 11 2 17 5 13
3 -3 4 -12 1 -19z m-984 -2 c6 -16 -16 -40 -26 -29 -4 3 -7 15 -7 25 0 21 25
24 33 4z m2182 -57 c-4 -5 -13 -9 -21 -9 -12 0 -13 4 -3 22 9 18 9 20 -4 15
-19 -7 -42 17 -32 34 5 7 17 0 36 -21 16 -17 27 -36 24 -41z m278 57 c6 -16
-16 -40 -26 -29 -4 3 -7 15 -7 25 0 21 25 24 33 4z m-1663 -46 c11 -7 6 -10
-20 -10 -54 0 -113 -12 -100 -20 7 -4 -2 -12 -22 -20 -37 -15 -86 -50 -70 -50
6 0 -5 -23 -23 -50 -19 -28 -37 -68 -40 -88 -11 -61 -15 -61 -12 1 3 41 10 67
27 89 18 24 19 30 7 25 -29 -11 -19 10 18 40 20 15 48 39 63 52 39 36 137 53
172 31z m942 1 c35 -8 106 -66 95 -77 -3 -3 -27 6 -53 20 -27 14 -44 26 -39
27 30 2 -38 18 -80 18 -36 1 -46 4 -35 11 18 12 63 12 112 1z m371 -27 c-4
-10 0 -12 11 -8 9 4 16 1 16 -6 0 -8 -8 -10 -22 -6 -13 3 -26 6 -30 6 -10 0
-10 34 -1 43 10 11 32 -13 26 -29z m-1763 6 c-6 -11 -15 -18 -21 -14 -6 4 -6
11 2 20 17 21 31 17 19 -6z m-129 -83 c-5 -49 -13 -93 -20 -100 -14 -14 -14
13 -1 107 10 64 18 92 25 84 2 -2 0 -43 -4 -91z m2016 -36 c5 -55 3 -72 -5
-67 -7 4 -12 34 -12 75 0 37 -5 72 -11 78 -7 7 -8 19 -4 30 6 15 9 13 16 -12
5 -16 12 -63 16 -104z m-461 38 c3 -6 -5 -3 -20 6 -14 10 -26 19 -26 22 0 7
39 -17 46 -28z m130 20 c4 -6 8 -41 9 -78 1 -36 5 -74 10 -84 7 -16 4 -17 -21
-11 -39 9 -51 21 -36 36 16 16 15 28 -2 28 -31 0 -34 57 -5 94 22 28 34 32 45
15z m-1218 -8 c15 6 23 7 17 2 -5 -4 -27 -24 -49 -43 l-39 -35 19 30 19 30
-27 -18 c-16 -9 -28 -13 -28 -8 0 15 54 54 58 42 2 -7 12 -7 30 0z m1492 -6
c0 -2 -10 -9 -22 -15 -22 -11 -22 -10 -4 4 21 17 26 19 26 11z m320 -49 c0 -4
7 -5 16 -2 14 5 15 1 10 -29 -6 -31 -5 -36 11 -33 25 4 27 -25 4 -53 l-20 -24
-1 24 c0 17 -4 21 -15 17 -11 -4 -17 3 -22 24 -7 37 -18 38 -37 3 -8 -16 -16
-23 -17 -18 -1 6 -4 -3 -8 -20 l-7 -30 -18 27 c-20 30 -14 68 11 68 8 0 17 9
20 20 3 11 11 20 18 20 16 0 26 25 19 48 -4 11 1 8 15 -8 11 -14 21 -29 21
-34z m-2185 -12 c26 -56 12 -50 -18 7 -14 28 -20 45 -12 39 7 -6 21 -27 30
-46z m-545 26 c0 -5 -4 -10 -10 -10 -5 0 -10 5 -10 10 0 6 5 10 10 10 6 0 10
-4 10 -10z m2360 -21 c-7 -11 -14 -18 -17 -15 -3 3 0 12 7 21 18 21 23 19 10
-6z m-2172 -29 c-12 -16 -26 -30 -30 -30 -5 0 1 14 14 30 12 17 26 30 30 30 5
0 -1 -13 -14 -30z m1162 -15 l55 -37 -70 6 c-128 12 -132 13 -127 48 4 29 6
30 46 25 25 -2 63 -19 96 -42z m333 18 c3 -16 0 -31 -5 -35 -15 -9 -208 -22
-215 -14 -4 3 5 6 19 6 14 0 43 13 64 28 48 35 61 40 100 41 27 1 32 -3 37
-26z m-588 -35 c-3 -13 -10 -54 -15 -92 -15 -95 -23 -108 -45 -67 -13 26 -14
39 -6 62 6 16 8 36 5 43 -5 14 41 76 57 76 5 0 7 -10 4 -22z m743 -5 c22 -33
36 -66 23 -58 -5 3 -5 -7 1 -22 8 -22 7 -37 -6 -67 -9 -22 -19 -37 -22 -34 -3
3 -12 48 -20 99 -8 51 -17 96 -20 101 -3 4 2 8 10 8 8 0 23 -12 34 -27z
m-1688 -13 c0 -5 -10 -15 -22 -21 -23 -12 -23 -12 -4 10 21 23 26 26 26 11z
m360 0 c13 -9 13 -10 0 -10 -8 0 -22 5 -30 10 -13 9 -13 10 0 10 8 0 22 -5 30
-10z m1900 0 c-20 -13 -33 -13 -25 0 3 6 14 10 23 10 15 0 15 -2 2 -10z
m-2100 -49 c12 -23 4 -48 -20 -61 -21 -11 -40 5 -40 35 0 42 41 60 60 26z
m-210 -11 c-6 -11 -13 -20 -16 -20 -2 0 0 9 6 20 6 11 13 20 16 20 2 0 0 -9
-6 -20z m2066 0 c15 -6 25 -23 33 -57 7 -26 14 -56 17 -65 8 -26 -15 -22 -26
5 l-9 22 0 -22 c-1 -12 -5 -25 -11 -28 -5 -3 -7 -19 -4 -35 5 -21 1 -33 -14
-46 -17 -14 -18 -20 -9 -36 20 -32 -16 -51 -81 -45 -92 9 -114 47 -27 47 30 0
55 5 55 10 0 6 -12 10 -27 10 -54 0 -103 20 -103 40 0 23 3 23 83 20 46 -1 57
1 57 14 0 12 -10 16 -44 16 -77 0 -106 10 -106 35 0 29 16 35 103 35 91 0 78
17 -21 26 -60 6 -72 10 -72 25 0 36 39 51 115 43 39 -3 80 -10 91 -14z m-1723
-72 c2 -40 13 -103 24 -141 11 -37 17 -69 13 -72 -9 -5 -47 149 -56 228 -4 37
-3 57 4 57 6 0 12 -32 15 -72z m207 69 c0 -2 -9 -12 -20 -22 -19 -18 -20 -17
-20 3 0 15 6 22 20 22 11 0 20 -2 20 -3z m60 -7 c0 -5 -14 -25 -31 -44 -17
-20 -28 -39 -25 -44 7 -12 -50 -102 -65 -102 -8 0 -6 7 4 18 10 10 17 25 17
33 0 21 38 90 68 122 28 30 32 32 32 17z m644 -13 c8 -12 7 -21 -6 -33 -20
-20 -38 -11 -38 20 0 39 23 46 44 13z m50 1 c9 -35 8 -38 -15 -38 -15 0 -19 4
-15 16 3 9 6 22 6 30 0 22 17 16 24 -8z m64 0 c2 -9 -6 -22 -17 -28 -19 -10
-21 -8 -21 20 0 25 4 31 17 28 10 -2 19 -11 21 -20z m33 -28 c5 0 9 9 9 20 0
11 4 20 9 20 5 0 6 -12 2 -27 -11 -41 -36 -36 -37 7 -1 26 -1 28 3 8 2 -16 9
-28 14 -28z m74 13 c1 -23 -3 -29 -11 -23 -6 6 -14 7 -17 3 -4 -3 -7 8 -7 26
0 26 4 32 18 29 12 -2 17 -13 17 -35z m705 27 c0 -5 -7 -7 -15 -4 -8 4 -15 8
-15 10 0 2 7 4 15 4 8 0 15 -4 15 -10z m187 -57 c-4 -38 -13 -88 -22 -113
l-14 -45 4 45 c3 25 8 75 11 113 4 37 11 67 17 67 6 0 8 -24 4 -67z m443 37
c0 -5 -4 -10 -10 -10 -5 0 -10 5 -10 10 0 6 5 10 10 10 6 0 10 -4 10 -10z
m-655 -30 l20 -25 -22 19 c-13 11 -23 24 -23 29 0 6 1 8 3 6 1 -2 11 -15 22
-29z m448 23 c-7 -2 -19 -2 -25 0 -7 3 -2 5 12 5 14 0 19 -2 13 -5z m-2202
-75 c25 -34 24 -58 -1 -58 -23 0 -40 28 -40 68 0 31 12 51 19 30 2 -7 12 -25
22 -40z m852 14 c3 7 6 -2 6 -21 1 -28 -1 -31 -13 -22 -11 9 -15 9 -19 -1 -3
-7 -6 2 -6 21 -1 28 1 31 13 22 11 -9 15 -9 19 1z m55 1 c-19 -5 -25 -43 -7
-43 5 0 7 5 4 10 -3 6 -1 10 4 10 6 0 11 -7 11 -15 0 -8 -9 -15 -20 -15 -14 0
-20 7 -20 23 0 28 8 37 29 36 13 -1 13 -2 -1 -6z m67 -23 c0 -21 -5 -28 -17
-27 -12 1 -18 10 -18 27 0 17 6 26 18 27 12 1 17 -6 17 -27z m60 0 c0 -18 -6
-26 -22 -28 -18 -3 -23 1 -23 21 0 28 9 39 30 35 9 -2 15 -14 15 -28z m53 18
c12 4 14 1 9 -12 -4 -10 -7 -22 -7 -28 0 -7 -5 -6 -14 1 -11 9 -15 9 -19 -1
-3 -7 -6 3 -6 22 -1 25 2 31 10 23 6 -6 18 -9 27 -5z m-327 -7 c-11 -7 -10
-11 4 -19 21 -11 12 -32 -13 -32 -15 0 -15 2 -2 11 11 8 12 12 3 16 -19 7 -15
33 5 33 13 0 14 -2 3 -9z m36 -28 c-3 -10 -5 -4 -5 12 0 17 2 24 5 18 2 -7 2
-21 0 -30z m341 30 c-10 -2 -18 -11 -18 -18 0 -19 17 -28 23 -13 3 8 6 6 6 -4
1 -22 -27 -24 -35 -3 -9 23 3 45 23 44 17 -1 17 -2 1 -6z m639 -25 c13 -12 23
-16 23 -9 0 20 56 -15 81 -51 17 -23 23 -48 25 -92 1 -34 0 -52 -3 -41 -2 11
-8 31 -13 45 -4 14 -11 37 -14 52 -4 17 -18 34 -38 44 -28 15 -30 15 -25 0 4
-9 2 -16 -3 -16 -6 0 -10 4 -10 10 0 5 -14 25 -31 45 -34 39 -29 48 8 13z
m-2047 -48 c0 -13 -7 -20 -20 -20 -19 0 -27 20 -13 33 13 14 33 6 33 -13z
m2470 0 c0 -11 -6 -20 -14 -20 -18 0 -29 16 -21 30 11 18 35 11 35 -10z
m-1196 -37 c25 -25 26 -27 9 -37 -10 -5 -24 -19 -32 -30 -30 -41 -52 -57 -71
-51 -14 4 -18 2 -15 -7 5 -13 -52 -55 -67 -50 -5 1 -8 -3 -8 -10 0 -9 -3 -9
-12 0 -20 20 -28 13 -17 -14 5 -15 8 -28 6 -30 -8 -8 -67 57 -67 74 1 15 68
71 88 72 4 1 34 25 67 55 33 30 67 55 76 55 9 0 28 -12 43 -27z m-930 -26
c-16 -18 -37 -44 -46 -57 l-17 -25 10 32 c6 18 24 44 41 58 41 34 46 31 12 -8z
m199 -1 c46 -17 72 -39 91 -78 11 -21 11 -28 2 -28 -15 0 -68 54 -61 62 10 10
-20 26 -75 41 -42 12 -48 15 -25 16 17 0 47 -6 68 -13z m490 -2 c29 -9 55 -20
58 -23 4 -3 -13 -15 -37 -27 -24 -11 -41 -18 -40 -15 2 3 -7 14 -21 25 l-25
18 16 -30 c13 -26 14 -32 1 -42 -17 -14 -51 -5 -59 16 -6 16 7 48 32 77 18 21
12 21 75 1z m462 -30 c8 -20 15 -41 15 -46 0 -14 -62 1 -84 21 -10 9 -20 15
-22 14 -11 -7 -34 -2 -34 7 0 13 57 39 87 40 17 0 27 -10 38 -36z m-1685 6 c0
-5 -5 -10 -11 -10 -5 0 -7 5 -4 10 3 6 8 10 11 10 2 0 4 -4 4 -10z m2825 0 c3
-5 1 -10 -4 -10 -6 0 -11 5 -11 10 0 6 2 10 4 10 3 0 8 -4 11 -10z m-2610 -19
c7 -12 -12 -24 -25 -16 -11 7 -4 25 10 25 5 0 11 -4 15 -9z m1340 -11 c2 -4
-7 -5 -20 -2 -14 2 -25 8 -25 12 0 10 38 1 45 -10z m1075 5 c0 -8 -7 -15 -15
-15 -8 0 -15 7 -15 15 0 8 7 15 15 15 8 0 15 -7 15 -15z m-1706 -37 c11 -41
10 -41 -43 -11 -6 4 20 33 29 33 4 0 10 -10 14 -22z m639 -6 c21 -19 22 -42 2
-42 -8 0 -15 -7 -15 -16 0 -10 -6 -14 -14 -11 -10 4 -13 1 -10 -7 6 -14 -19
-29 -50 -30 -11 -1 -21 -8 -24 -16 -5 -13 -3 -13 13 0 14 11 12 6 -5 -17 -27
-37 -30 -38 -49 -20 -11 10 -13 8 -8 -10 l5 -22 -42 22 c-22 12 -42 22 -42 22
-1 0 -4 10 -8 22 -5 16 0 26 24 43 21 15 35 19 43 12 17 -13 60 -8 65 8 3 7
-3 19 -14 27 -10 7 -13 13 -5 13 7 0 19 -7 27 -15 12 -12 19 -12 34 -2 20 12
27 28 13 26 -20 -3 -43 2 -43 9 0 14 44 31 65 25 11 -3 28 -12 38 -21z m122
-15 c75 -24 79 -32 53 -84 -12 -24 -34 -33 -25 -10 3 6 8 21 13 32 12 33 -13
5 -33 -37 -19 -39 -29 -39 -51 1 -12 20 -12 25 0 33 9 7 6 8 -10 5 -20 -5 -23
-2 -19 13 3 10 -4 32 -14 49 -23 39 -24 44 -1 31 9 -6 49 -21 87 -33z m268
-18 c25 -31 52 -70 61 -87 9 -17 30 -42 48 -56 l32 -25 -69 -65 c-38 -37 -72
-66 -76 -66 -15 0 -17 45 -3 79 8 20 15 61 15 91 1 52 -2 57 -41 92 -37 33
-41 41 -35 68 4 17 10 30 14 28 5 -2 29 -28 54 -59z m-815 -3 c26 -25 26 -26
5 -26 -17 0 -21 -4 -17 -17 4 -11 3 -14 -3 -7 -9 13 -48 34 -60 34 -4 -1 5
-11 21 -24 38 -31 31 -61 -11 -45 -58 22 -83 61 -66 104 10 28 97 15 131 -19z
m690 -3 c17 -37 16 -38 -22 -39 -27 0 -32 3 -29 17 3 9 0 20 -6 23 -20 13 -11
26 17 26 20 0 30 -7 40 -27z m-917 -19 c17 -16 17 -17 -2 -33 -13 -10 -18 -22
-14 -34 9 -22 33 -22 57 0 23 21 35 11 13 -11 -23 -23 -56 -20 -95 9 -32 24
-60 32 -60 19 0 -22 59 -132 79 -149 39 -33 94 -61 130 -68 41 -8 61 -24 61
-46 -1 -14 -2 -14 -14 2 -16 21 -39 22 -57 1 -15 -19 -63 -12 -90 12 -9 8 -24
16 -32 18 -19 3 -61 31 -94 64 -26 25 -28 32 -25 94 2 42 9 71 18 79 8 6 14
17 14 23 0 36 78 50 111 20z m499 8 c0 -13 -12 -22 -22 -16 -10 6 -1 24 13 24
5 0 9 -4 9 -8z m-1170 -12 c0 -5 -4 -10 -10 -10 -5 0 -10 5 -10 10 0 6 5 10
10 10 6 0 10 -4 10 -10z m2355 0 c-3 -5 -10 -10 -16 -10 -5 0 -9 5 -9 10 0 6
7 10 16 10 8 0 12 -4 9 -10z m-671 -59 c13 -24 12 -31 -1 -59 -16 -32 -106
-96 -126 -89 -6 2 7 14 29 27 79 49 100 83 78 124 -8 16 -14 30 -14 33 0 11
22 -11 34 -36z m-974 20 c0 -12 -29 -35 -36 -28 -11 10 5 37 21 37 8 0 15 -4
15 -9z m887 -13 c13 -12 23 -26 23 -32 0 -17 -88 -69 -105 -62 -9 3 -21 -4
-31 -19 -18 -27 -40 -34 -30 -10 3 8 1 15 -4 15 -24 0 -6 31 30 51 28 16 40
29 40 45 0 38 42 45 77 12z m-1777 2 c0 -5 -5 -10 -11 -10 -5 0 -7 5 -4 10 3
6 8 10 11 10 2 0 4 -4 4 -10z m1182 -30 c35 -22 69 -40 76 -40 7 0 10 -4 7
-10 -3 -6 1 -7 10 -4 8 4 27 -1 40 -10 l26 -17 -22 -31 c-21 -29 -25 -30 -70
-25 -26 3 -59 13 -73 22 -15 10 -26 12 -30 6 -4 -6 -14 -7 -22 -4 -11 4 -12 8
-4 13 15 9 -6 26 -44 36 -21 5 -27 4 -22 -5 4 -6 2 -11 -3 -11 -18 0 -12 51
10 86 11 19 29 34 39 34 11 0 48 -18 82 -40z m1528 30 c0 -5 -5 -10 -11 -10
-5 0 -7 5 -4 10 3 6 8 10 11 10 2 0 4 -4 4 -10z m-1753 -22 c-3 -8 -6 -5 -6 6
-1 11 2 17 5 13 3 -3 4 -12 1 -19z m-737 -2 c0 -3 -4 -8 -10 -11 -5 -3 -10 -1
-10 4 0 6 5 11 10 11 6 0 10 -2 10 -4z m-190 -30 c0 -3 -4 -8 -10 -11 -5 -3
-10 -1 -10 4 0 6 5 11 10 11 6 0 10 -2 10 -4z m968 -8 c16 -16 16 -42 0 -32
-7 5 -9 2 -5 -8 4 -12 1 -14 -15 -10 -25 6 -34 28 -18 47 15 18 22 19 38 3z
m553 -10 c23 -29 24 -57 2 -74 -21 -16 -37 -18 -28 -4 3 6 2 10 -4 10 -5 0
-13 -4 -16 -10 -3 -5 -16 -10 -28 -10 -20 0 -20 0 -1 16 18 14 18 15 -3 4 -13
-6 -23 -15 -23 -20 0 -15 -37 -12 -43 4 -3 7 0 19 6 26 9 10 9 14 -1 17 -16 6
-6 23 14 23 8 0 24 9 36 20 29 26 65 25 89 -2z m1139 18 c0 -3 -4 -8 -10 -11
-5 -3 -10 -1 -10 4 0 6 5 11 10 11 6 0 10 -2 10 -4z m-394 -24 c3 -34 18 -99
25 -108 6 -7 34 -10 79 -6 39 2 70 1 70 -3 0 -27 -174 -225 -235 -268 -16 -12
5 14 49 56 43 43 76 81 72 84 -3 4 -21 -7 -39 -23 -26 -23 -28 -24 -9 -3 31
35 28 48 -5 18 l-27 -24 17 27 c16 25 16 27 0 21 -10 -4 -14 -2 -10 4 10 17
-23 25 -41 11 -13 -11 -14 -10 -3 10 8 15 8 22 1 22 -6 0 -8 5 -4 11 4 7 -2 7
-17 -1 -20 -10 -22 -10 -11 1 17 18 15 34 -3 19 -18 -15 -20 1 -2 19 10 11 9
12 -3 6 -8 -4 -23 -15 -32 -23 -33 -28 -18 4 18 39 19 18 49 56 66 82 27 42
42 51 44 29z m-1752 -161 c-2 -3 -18 8 -34 24 -34 32 -38 28 -13 -13 l17 -27
-23 20 -24 20 13 -25 c10 -21 10 -23 -1 -12 -22 21 -33 13 -13 -10 10 -13 12
-17 4 -10 -24 21 -31 13 -13 -15 17 -28 17 -28 -3 -10 -29 24 -41 21 -18 -5
10 -12 13 -18 6 -14 -7 4 -24 9 -38 11 -23 2 -23 1 -9 -15 22 -24 18 -36 -5
-15 -25 22 -26 9 -3 -19 10 -12 3 -7 -16 9 -58 51 -19 -5 51 -76 46 -45 52
-54 23 -32 -64 49 -225 234 -225 259 0 4 34 4 75 1 l75 -5 9 36 c5 20 12 49
15 64 6 27 8 25 80 -55 40 -45 72 -84 70 -86z m410 105 c10 -3 16 -9 13 -13
-11 -10 -67 19 -79 40 l-10 20 28 -20 c16 -11 38 -23 48 -27z m666 17 c0 -5
-5 -15 -10 -23 -8 -12 -10 -11 -10 8 0 12 5 22 10 22 6 0 10 -3 10 -7z m520
-44 c0 -5 -7 -9 -15 -9 -15 0 -20 12 -9 23 8 8 24 -1 24 -14z m-1016 -25 c63
-13 117 -15 265 -11 102 3 196 8 209 12 13 4 22 3 22 -3 0 -11 -86 -27 -200
-37 -85 -8 -277 12 -357 36 -35 11 -63 22 -63 26 0 3 10 3 23 -1 12 -3 57 -13
101 -22z m559 9 c-7 -2 -21 -2 -30 0 -10 3 -4 5 12 5 17 0 24 -2 18 -5z m-913
-58 c9 -11 10 -19 3 -26 -7 -7 -17 -2 -32 17 -11 15 -21 31 -21 36 0 11 33 -6
50 -27z m-660 15 c0 -5 -2 -10 -4 -10 -3 0 -8 5 -11 10 -3 6 -1 10 4 10 6 0
11 -4 11 -10z m2047 -98 c31 -40 30 -42 -85 -124 -194 -137 -369 -201 -632
-229 -105 -11 -128 -10 -260 10 -258 38 -453 124 -644 285 l-28 24 53 66 c29
36 56 66 61 66 19 0 86 -50 111 -83 37 -49 144 -107 209 -114 29 -3 82 -14
118 -25 36 -10 121 -24 190 -30 106 -10 142 -9 240 5 214 32 402 112 540 230
l34 30 34 -39 c19 -21 45 -54 59 -72z m443 98 c0 -5 -2 -10 -4 -10 -3 0 -8 5
-11 10 -3 6 -1 10 4 10 6 0 11 -4 11 -10z m-1610 -50 c0 -5 -4 -10 -10 -10 -5
0 -10 5 -10 10 0 6 5 10 10 10 6 0 10 -4 10 -10z m1580 0 c0 -5 -4 -10 -10
-10 -5 0 -10 5 -10 10 0 6 5 10 10 10 6 0 10 -4 10 -10z m-1696 -26 c17 -3 52
-8 77 -11 40 -4 46 -8 42 -24 -6 -23 -23 -26 -23 -4 0 8 -4 15 -10 15 -5 0
-10 -4 -10 -10 0 -15 -56 -12 -72 3 -7 7 -16 14 -21 15 -13 3 -67 32 -67 37 0
2 12 0 27 -6 14 -5 40 -12 57 -15z m186 -26 c0 -5 -7 -3 -15 6 -8 8 -15 18
-15 22 0 3 7 1 15 -6 8 -7 15 -17 15 -22z m-629 -5 c13 -16 12 -17 -3 -4 -10
7 -18 15 -18 17 0 8 8 3 21 -13z m606 -9 c-3 -3 -12 -4 -19 -1 -8 3 -5 6 6 6
11 1 17 -2 13 -5z m-38 -50 c9 -8 -55 -2 -74 6 -13 6 -5 7 25 3 25 -3 47 -7
49 -9z m1135 -168 c19 -36 14 -67 -5 -33 -15 26 -32 21 -25 -8 10 -38 -10 -30
-40 15 -29 43 -26 64 4 37 22 -20 35 -12 22 13 -11 20 -2 34 14 21 6 -5 20
-26 30 -45z m-1544 8 c-17 -26 -20 -38 -11 -47 25 -25 8 -35 -23 -12 -17 13
-17 15 5 54 12 23 29 41 37 41 10 0 8 -9 -8 -36z m101 -15 c11 -5 17 -14 13
-20 -4 -7 -10 -6 -19 1 -10 8 -15 8 -21 -1 -4 -7 -2 -15 4 -17 7 -2 12 -8 12
-14 0 -5 -9 -6 -20 -3 -14 5 -20 2 -20 -9 0 -9 5 -16 10 -16 6 0 10 -4 10 -10
0 -14 -13 -13 -34 3 -18 13 -18 15 5 55 26 45 30 47 60 31z m1346 -41 c38 -37
42 -53 12 -45 -15 4 -23 0 -26 -14 -11 -41 -25 -21 -39 54 -8 47 8 49 53 5z
m243 12 c0 -5 -2 -10 -4 -10 -3 0 -8 5 -11 10 -3 6 -1 10 4 10 6 0 11 -4 11
-10z m-1519 -10 c27 -15 24 -25 -17 -51 -30 -18 -34 -23 -20 -31 30 -17 16
-28 -16 -12 l-31 16 39 34 c21 18 33 33 27 34 -7 0 -13 5 -13 10 0 13 6 13 31
0z m1189 -24 c0 -13 3 -39 7 -57 l6 -34 -41 45 c-22 25 -36 47 -31 48 5 2 16
-2 24 -8 12 -10 15 -9 15 9 0 11 5 21 10 21 6 0 10 -11 10 -24z m-1470 -6 c0
-5 -2 -10 -4 -10 -3 0 -8 5 -11 10 -3 6 -1 10 4 10 6 0 11 -4 11 -10z m1750 0
c0 -5 -2 -10 -4 -10 -3 0 -8 5 -11 10 -3 6 -1 10 4 10 6 0 11 -4 11 -10z
m-1390 -49 c0 -22 -3 -47 -7 -56 -5 -15 -8 -15 -24 6 -15 19 -21 21 -28 10 -6
-10 -10 -10 -16 -1 -7 11 50 80 67 80 4 0 8 -18 8 -39z m1045 -7 c20 -53 15
-63 -20 -40 -26 17 -26 17 -19 -10 11 -43 -16 -25 -32 21 -18 51 -11 75 14 51
24 -21 31 -20 25 4 -10 39 15 19 32 -26z m-1355 26 c0 -5 -5 -10 -11 -10 -5 0
-7 5 -4 10 3 6 8 10 11 10 2 0 4 -4 4 -10z m394 -6 c19 -7 21 -24 3 -24 -8 0
-22 -19 -31 -42 -20 -47 -34 -36 -17 12 5 17 8 37 5 45 -6 16 12 20 40 9z
m856 -14 c0 -5 -7 -10 -15 -10 -8 0 -15 -7 -15 -16 0 -10 6 -14 15 -11 8 4 17
2 20 -2 3 -5 -2 -11 -10 -15 -23 -8 -18 -29 5 -23 31 8 35 -12 5 -23 -14 -6
-28 -10 -30 -10 -4 0 -35 90 -35 101 0 7 22 15 48 18 6 0 12 -3 12 -9z m-80
-35 c6 -8 9 -23 5 -34 -3 -10 -1 -22 5 -26 5 -3 10 -10 10 -16 0 -15 -22 -10
-36 9 -12 16 -13 15 -14 -5 0 -13 -4 -23 -8 -23 -10 0 -34 89 -27 101 9 14 51
11 65 -6z m-610 -10 c0 -5 -10 -10 -23 -10 -17 0 -22 -6 -22 -27 0 -16 5 -28
10 -27 6 0 9 7 7 15 -2 8 4 14 13 14 19 0 19 -20 2 -44 -10 -13 -20 -16 -35
-12 -17 6 -22 15 -22 45 0 20 6 43 12 49 15 15 59 12 58 -3z m-460 -5 c0 -5
-2 -10 -4 -10 -3 0 -8 5 -11 10 -3 6 -1 10 4 10 6 0 11 -4 11 -10z m511 -38
c-3 -54 14 -55 23 -2 3 22 11 40 17 40 15 0 3 -80 -15 -98 -11 -11 -18 -11
-35 -3 -22 12 -25 28 -15 80 10 46 29 32 25 -17z m939 44 c0 -3 -4 -8 -10 -11
-5 -3 -10 -1 -10 4 0 6 5 11 10 11 6 0 10 -2 10 -4z m-803 -28 c9 -8 10 -15 2
-30 -6 -11 -9 -29 -6 -39 3 -10 1 -22 -5 -25 -5 -3 -12 3 -15 15 -6 24 -23 28
-23 6 0 -8 -4 -15 -10 -15 -10 0 -14 92 -4 102 7 7 45 -2 61 -14z m271 -5 c-2
-21 1 -27 13 -25 12 1 17 -5 17 -22 0 -19 -7 -26 -29 -31 -16 -4 -33 -4 -38 0
-8 4 -9 83 -2 103 1 1 10 2 22 2 16 0 20 -5 17 -27z m-218 -38 c0 -30 -4 -55
-10 -55 -5 0 -10 25 -10 55 0 30 5 55 10 55 6 0 10 -25 10 -55z m50 34 c0 -12
5 -19 13 -16 6 2 11 11 9 21 -2 9 4 16 13 16 12 0 15 -12 15 -55 0 -53 -15
-77 -22 -33 -5 32 -28 35 -28 4 0 -14 -4 -26 -10 -26 -5 0 -10 25 -10 55 0 30
5 55 10 55 6 0 10 -9 10 -21z m-436 -8 c3 -5 -1 -14 -9 -21 -13 -10 -15 -9
-15 9 0 21 14 28 24 12z m1021 -11 c3 -5 1 -10 -4 -10 -6 0 -11 5 -11 10 0 6
2 10 4 10 3 0 8 -4 11 -10z m-55 -24 c0 -3 -4 -8 -10 -11 -5 -3 -10 -1 -10 4
0 6 5 11 10 11 6 0 10 -2 10 -4z m-1050 -26 c0 -5 -5 -10 -11 -10 -5 0 -7 5
-4 10 3 6 8 10 11 10 2 0 4 -4 4 -10z m990 0 c0 -5 -4 -10 -10 -10 -5 0 -10 5
-10 10 0 6 5 10 10 10 6 0 10 -4 10 -10z m-65 -20 c3 -5 1 -10 -4 -10 -6 0
-11 5 -11 10 0 6 2 10 4 10 3 0 8 -4 11 -10z m-805 -20 c0 -5 -2 -10 -4 -10
-3 0 -8 5 -11 10 -3 6 -1 10 4 10 6 0 11 -4 11 -10z m750 0 c0 -5 -4 -10 -10
-10 -5 0 -10 5 -10 10 0 6 5 10 10 10 6 0 10 -4 10 -10z m-505 -40 c3 -5 1
-10 -4 -10 -6 0 -11 5 -11 10 0 6 2 10 4 10 3 0 8 -4 11 -10z m255 0 c0 -5 -5
-10 -11 -10 -5 0 -7 5 -4 10 3 6 8 10 11 10 2 0 4 -4 4 -10z m-190 -10 c0 -5
-2 -10 -4 -10 -3 0 -8 5 -11 10 -3 6 -1 10 4 10 6 0 11 -4 11 -10z"/>
<path d="M1915 3108 c-3 -7 -6 -74 -7 -148 l-3 -135 25 0 25 0 3 139 c2 105
-1 141 -10 148 -18 11 -28 10 -33 -4z"/>
<path d="M1715 3085 c-48 -47 -30 -102 45 -140 40 -20 50 -30 50 -50 0 -34
-26 -42 -53 -17 -17 16 -26 18 -39 11 -24 -14 -22 -31 5 -57 52 -49 147 -12
147 58 0 46 -15 67 -69 95 -54 27 -67 47 -45 69 15 15 44 12 44 -5 0 -16 40
-9 47 8 9 23 -32 53 -74 53 -23 0 -42 -8 -58 -25z"/>
<path d="M2034 3098 c-4 -6 -15 -68 -25 -137 -15 -108 -16 -128 -4 -140 23
-23 42 3 49 69 8 66 20 84 30 42 27 -111 36 -132 61 -132 20 0 25 6 31 38 3
20 14 80 25 132 10 52 15 98 11 102 -4 3 -16 8 -27 10 -16 2 -21 -5 -28 -42
-21 -112 -21 -112 -46 -25 -13 44 -29 83 -35 87 -16 11 -34 10 -42 -4z"/>
<path d="M2313 3030 c-51 -21 -102 -145 -89 -215 4 -19 17 -41 29 -50 29 -21
90 -19 109 3 21 23 48 78 48 96 0 16 -64 41 -80 31 -15 -9 -12 -35 5 -41 20
-8 19 -16 -5 -42 -39 -42 -68 2 -49 74 13 46 54 104 75 104 8 0 19 -12 24 -26
7 -19 16 -25 32 -22 31 4 34 31 6 62 -26 29 -71 40 -105 26z"/>
<path d="M1401 3019 c-51 -20 -51 -24 -15 -124 51 -142 62 -165 79 -165 23 0
29 27 16 72 -7 22 -10 43 -6 46 3 4 22 -12 41 -36 36 -43 63 -52 83 -29 8 10
1 22 -28 51 -38 37 -39 40 -34 90 7 68 -20 106 -75 105 -20 0 -48 -5 -61 -10z
m84 -59 c8 -26 -2 -57 -21 -64 -10 -4 -20 5 -30 29 -20 48 -18 55 15 55 21 0
32 -6 36 -20z"/>
<path d="M2491 2920 c-17 -28 -31 -53 -31 -55 0 -3 -18 -35 -41 -70 -34 -54
-39 -68 -29 -80 19 -23 35 -18 61 22 38 58 47 53 46 -24 -2 -62 0 -68 19 -71
20 -3 22 3 28 76 8 88 13 95 84 131 36 18 41 25 32 37 -17 20 -39 17 -89 -11
-24 -14 -46 -24 -48 -21 -2 2 5 19 16 37 26 42 26 56 2 69 -17 8 -24 3 -50
-40z"/>
<path d="M1263 2953 c-22 -8 -15 -36 28 -108 23 -39 45 -79 49 -91 8 -21 -4
-54 -20 -54 -15 0 -50 42 -72 85 -12 22 -32 57 -45 78 -20 32 -26 36 -43 27
-11 -6 -20 -14 -20 -19 0 -19 93 -169 120 -193 35 -32 49 -34 91 -13 35 19 52
55 42 93 -7 32 -102 202 -112 201 -3 0 -12 -3 -18 -6z"/>
<path d="M2669 2787 c-47 -31 -99 -111 -99 -153 0 -38 34 -82 65 -85 48 -4 67
3 106 38 77 70 100 153 54 198 -31 32 -81 33 -126 2z m90 -36 c21 -14 7 -52
-40 -104 -64 -73 -124 -59 -83 19 21 39 78 94 97 94 7 0 18 -4 26 -9z"/>
<path d="M1007 2773 c-20 -16 -36 -34 -37 -41 0 -12 80 -117 143 -189 46 -51
86 -17 42 36 -30 35 -30 36 -5 68 28 36 26 85 -6 122 -34 41 -86 43 -137 4z
m103 -44 c14 -25 5 -69 -13 -69 -19 0 -60 59 -53 76 8 22 54 17 66 -7z"/>
<path d="M2796 2584 c-61 -54 -96 -92 -94 -102 6 -30 32 -23 86 24 28 25 52
41 52 34 0 -6 -14 -38 -31 -71 -32 -65 -35 -104 -7 -104 22 0 218 154 218 171
0 6 -7 17 -15 24 -17 14 -24 10 -82 -44 -18 -16 -36 -27 -39 -23 -3 3 8 35 25
71 26 53 30 69 21 86 -6 11 -16 20 -23 20 -7 0 -57 -39 -111 -86z"/>
<path d="M848 2606 c-14 -32 -10 -41 75 -161 35 -49 71 -91 80 -93 19 -4 33
36 18 51 -17 17 -13 42 8 61 16 14 23 15 41 6 27 -15 50 -6 50 18 0 14 -30 35
-112 78 -62 32 -121 60 -130 62 -11 2 -22 -6 -30 -22z m118 -77 c29 -18 32
-23 21 -40 -12 -19 -13 -19 -39 11 -46 50 -37 63 18 29z"/>
<path d="M770 2442 c-42 -19 -90 -77 -90 -110 0 -4 37 -30 83 -56 45 -27 94
-57 109 -67 15 -11 32 -19 37 -19 6 0 22 20 37 45 20 35 25 53 20 79 -8 43
-80 110 -132 125 -44 12 -43 12 -64 3z m73 -68 c48 -25 77 -55 77 -81 0 -36
-21 -37 -81 -1 -97 59 -104 65 -89 83 16 19 53 19 93 -1z"/>
<path d="M2991 2428 c-55 -15 -121 -67 -138 -105 -16 -41 -4 -86 28 -103 29
-16 82 -11 116 10 l33 20 -17 35 c-19 40 -48 44 -48 6 -1 -33 -40 -51 -62 -28
-15 15 -15 18 1 42 33 50 133 92 159 66 7 -7 12 -26 12 -44 0 -25 4 -32 20
-32 12 0 23 10 29 27 14 39 -10 87 -50 104 -38 16 -37 16 -83 2z"/>
<path d="M1840 2145 c0 -16 48 -40 59 -30 10 11 -15 40 -38 43 -14 2 -21 -2
-21 -13z"/>
<path d="M1925 2140 c-10 -11 -15 -23 -12 -27 11 -10 57 15 57 32 0 21 -24 19
-45 -5z"/>
<path d="M1760 2076 c0 -8 20 -24 45 -36 63 -30 166 -26 218 10 35 24 40 40
11 40 -8 0 -13 -4 -9 -10 11 -18 -57 -43 -119 -43 -60 0 -126 22 -126 43 0 6
-4 10 -10 10 -5 0 -10 -6 -10 -14z"/>
<path d="M1847 1989 c19 -19 86 -22 108 -5 19 14 15 15 -49 16 -50 0 -67 -3
-59 -11z"/>
<path d="M2441 1674 c0 -11 3 -14 6 -6 3 7 2 16 -1 19 -3 4 -6 -2 -5 -13z"/>
<path d="M1787 1659 c4 -15 8 -17 14 -8 8 14 3 29 -11 29 -4 0 -6 -9 -3 -21z"/>
<path d="M2010 1670 c0 -5 5 -10 10 -10 6 0 10 5 10 10 0 6 -4 10 -10 10 -5 0
-10 -4 -10 -10z"/>
<path d="M1960 1580 c0 -13 5 -20 13 -17 6 2 12 10 12 17 0 7 -6 15 -12 18 -8
2 -13 -5 -13 -18z"/>
<path d="M1818 1412 c-20 -19 -25 -31 -18 -42 5 -9 5 -19 -2 -27 -7 -9 -7 -13
1 -13 6 0 11 5 11 10 0 6 9 10 20 10 13 0 17 5 14 14 -3 8 3 23 13 33 16 16
17 22 7 31 -16 15 -14 16 -46 -16z"/>
<path d="M1880 1379 c0 -5 5 -7 10 -4 6 3 10 8 10 11 0 2 -4 4 -10 4 -5 0 -10
-5 -10 -11z"/>
<path d="M2140 1423 c0 -4 5 -15 10 -23 8 -13 10 -13 10 2 0 9 -4 20 -10 23
-5 3 -10 3 -10 -2z"/>
<path d="M1840 1245 c7 -8 17 -15 22 -15 6 0 5 7 -2 15 -7 8 -17 15 -22 15 -6
0 -5 -7 2 -15z"/>
<path d="M1610 1320 c0 -5 5 -10 11 -10 5 0 7 5 4 10 -3 6 -8 10 -11 10 -2 0
-4 -4 -4 -10z"/>
<path d="M2205 1170 c-3 -5 -1 -10 4 -10 6 0 11 5 11 10 0 6 -2 10 -4 10 -3 0
-8 -4 -11 -10z"/>
<path d="M1745 1180 c-11 -5 -17 -9 -13 -9 3 -1 14 -4 24 -8 11 -4 15 -3 11 4
-4 6 -1 14 5 16 7 3 9 5 3 6 -5 0 -19 -4 -30 -9z"/>
<path d="M1205 921 c-3 -10 -3 -25 1 -34 4 -12 1 -14 -15 -10 -26 7 -28 -13
-3 -26 25 -13 44 1 42 30 -3 38 -1 41 16 24 16 -15 15 -18 -5 -45 -13 -19 -17
-31 -10 -35 6 -4 11 -5 13 -4 22 30 46 68 46 73 0 3 -6 6 -13 6 -7 0 -18 9
-25 20 -15 25 -39 26 -47 1z"/>
<path d="M2576 931 c-4 -5 -3 -17 0 -26 6 -15 4 -16 -15 -5 -33 17 -38 5 -14
-37 25 -43 49 -58 40 -24 -3 11 -1 19 4 15 5 -3 9 3 9 13 1 17 1 17 14 1 14
-20 26 -23 26 -9 0 13 -43 80 -52 81 -4 0 -9 -4 -12 -9z"/>
<path d="M1085 900 c3 -5 8 -10 11 -10 2 0 4 5 4 10 0 6 -5 10 -11 10 -5 0 -7
-4 -4 -10z"/>
<path d="M1281 856 c-12 -18 -21 -38 -21 -45 0 -15 17 -14 23 2 3 6 6 2 6 -10
1 -32 16 -28 40 11 26 41 29 65 6 46 -12 -10 -15 -10 -15 3 0 30 -18 27 -39
-7z"/>
<path d="M2500 885 c0 -4 7 -20 16 -36 21 -41 9 -50 -13 -10 -10 17 -24 31
-30 31 -18 0 -16 -5 10 -45 39 -62 85 -35 54 31 -14 29 -37 47 -37 29z"/>
<path d="M2440 845 c0 -17 31 -75 39 -75 14 0 14 3 -6 45 -14 30 -33 47 -33
30z"/>
<path d="M1353 828 c-28 -36 -24 -78 8 -78 19 0 43 33 32 44 -11 11 -23 6 -23
-10 0 -8 -5 -12 -10 -9 -7 4 -6 13 1 26 7 14 16 18 31 13 15 -4 19 -2 16 7 -6
19 -42 23 -55 7z"/>
<path d="M2403 821 c-6 -24 -14 -26 -30 -10 -8 8 -13 8 -17 0 -4 -6 -16 -11
-26 -11 -27 0 -33 -16 -20 -55 13 -40 22 -48 44 -39 21 8 20 24 -1 24 -13 0
-14 3 -5 12 17 17 15 31 -3 25 -22 -9 -26 7 -6 20 16 10 21 6 34 -29 9 -22 21
-37 27 -33 6 4 7 12 1 24 -8 14 -6 17 7 16 10 0 23 -5 30 -9 21 -13 23 -2 7
37 -18 45 -35 55 -42 28z"/>
<path d="M1412 783 c-12 -23 -22 -45 -22 -48 0 -11 29 -5 33 8 3 6 6 2 6 -10
1 -35 21 -27 21 8 0 19 7 37 18 45 16 12 15 13 -5 14 -12 0 -23 6 -26 13 -2 6
-14 -7 -25 -30z"/>
<path d="M1473 755 c-16 -33 -16 -37 -1 -52 21 -20 46 -11 58 23 25 64 -28 90
-57 29z m42 -7 c-10 -31 -25 -47 -25 -26 0 24 11 48 22 48 5 0 6 -10 3 -22z"/>
<path d="M2234 765 c-4 -9 -14 -13 -23 -11 -32 10 -46 -9 -35 -50 11 -44 28
-54 39 -22 23 67 21 65 29 31 5 -20 14 -33 23 -33 10 0 13 6 8 18 -5 14 -4 15
6 5 7 -7 16 -13 21 -13 10 0 -2 61 -15 78 -13 17 -46 15 -53 -3z m41 -14 c3
-5 1 -12 -5 -16 -5 -3 -10 1 -10 9 0 18 6 21 15 7z m-65 -32 c0 -5 -4 -9 -10
-9 -5 0 -10 7 -10 16 0 8 5 12 10 9 6 -3 10 -10 10 -16z"/>
<path d="M1552 753 c-26 -51 -19 -101 7 -55 9 15 10 15 11 -5 0 -39 15 -33 32
13 10 28 12 47 6 50 -6 4 -14 0 -19 -7 -7 -11 -9 -10 -9 4 0 9 -4 17 -10 17
-5 0 -13 -8 -18 -17z"/>
<path d="M1625 726 c-24 -36 -13 -76 20 -76 14 0 25 4 25 9 0 5 3 16 6 25 4
11 1 16 -10 16 -9 0 -16 -8 -16 -17 0 -15 -2 -15 -9 -4 -13 21 5 52 26 44 11
-4 14 -2 11 8 -8 24 -36 21 -53 -5z"/>
<path d="M2079 717 c-16 -34 4 -79 34 -75 16 2 23 11 25 32 3 26 1 28 -22 22
-20 -5 -24 -3 -20 9 4 8 13 15 21 15 8 0 11 5 8 10 -11 18 -35 11 -46 -13z
m41 -47 c0 -5 -4 -10 -10 -10 -5 0 -10 5 -10 10 0 6 5 10 10 10 6 0 10 -4 10
-10z"/>
<path d="M1718 706 c-14 -33 3 -76 31 -76 20 0 37 32 26 50 -10 16 -28 12 -22
-5 4 -8 2 -17 -2 -20 -13 -7 -21 20 -10 36 4 8 13 14 19 14 20 0 14 20 -7 23
-16 2 -26 -4 -35 -22z"/>
<path d="M1800 710 c-6 -12 -10 -33 -8 -48 4 -37 44 -44 57 -10 l10 23 0 -22
c1 -24 26 -32 34 -10 4 10 6 10 6 0 2 -26 19 -12 24 20 8 52 -30 78 -59 40
-12 -16 -13 -16 -14 -2 0 9 -7 20 -16 23 -22 8 -22 8 -34 -14z m30 -35 c0 -14
-4 -25 -10 -25 -5 0 -10 11 -10 25 0 14 5 25 10 25 6 0 10 -11 10 -25z"/>
<path d="M1953 723 c-8 -3 -13 -23 -13 -49 0 -40 2 -44 25 -44 14 0 25 5 25
10 0 6 -8 10 -17 10 -15 0 -14 2 3 14 18 14 18 15 1 22 -15 5 -16 9 -5 15 23
15 28 10 28 -31 0 -22 5 -40 10 -40 6 0 10 7 10 17 0 15 2 15 19 -1 24 -22 29
-12 23 42 -4 41 -22 60 -22 25 -1 -16 -2 -16 -13 -3 -12 15 -50 21 -74 13z"/>
<path d="M2565 630 c3 -5 8 -10 11 -10 2 0 4 5 4 10 0 6 -5 10 -11 10 -5 0 -7
-4 -4 -10z"/>
<path d="M2220 515 c0 -8 5 -15 10 -15 6 0 10 7 10 15 0 8 -4 15 -10 15 -5 0
-10 -7 -10 -15z"/>
<path d="M1800 480 c0 -19 3 -21 12 -12 9 9 9 15 0 24 -9 9 -12 7 -12 -12z"/>
<path d="M2085 440 c3 -5 8 -10 11 -10 2 0 4 5 4 10 0 6 -5 10 -11 10 -5 0 -7
-4 -4 -10z"/>
</g>
</svg>
